<?xml version="1.0" encoding="utf-8"?>
<!-- Generator: Adobe Illustrator 22.1.0, SVG Export Plug-In . SVG Version: 6.00 Build 0)  -->
<svg version="1.1" id="レイヤー_1" xmlns="http://www.w3.org/2000/svg" xmlns:xlink="http://www.w3.org/1999/xlink" x="0px"
	 y="0px" viewBox="0 0 24 24" style="enable-background:new 0 0 24 24;" xml:space="preserve" preserveAspectRatio="xMinYMid" width="24" height="24">
<style type="text/css">
	.st0{fill:none;}
	.st1{fill:#979797;}
</style>
<path class="st0" d="M0,0h24v24H0V0z"/>
<g>
	<path class="st1" d="M12,3c-5,0-9,4-9,9s4,9,9,9s9-4,9-9S17,3,12,3z M12,19.2c-4,0-7.2-3.2-7.2-7.2S8,4.8,12,4.8s7.2,3.2,7.2,7.2
		S16,19.2,12,19.2z"/>
	<g>
		<path class="st1" d="M13.5,18h-2.2v-5.2c-1.9,1.2-3.4,1.6-4.2,1.8L6,12.8c2.7-0.8,6.2-2.5,9.2-6.1l1.8,1.3c-0.8,1-1.8,2-3.7,3.3
			L13.5,18L13.5,18z"/>
	</g>
</g>
</svg>
